<!DOCTYPE svg PUBLIC "-//W3C//DTD SVG 1.1//EN" "http://www.w3.org/Graphics/SVG/1.1/DTD/svg11.dtd">
<!-- Uploaded to: SVG Repo, www.svgrepo.com, Transformed by: SVG Repo Mixer Tools -->
<svg fill="#ffffff" width="800px" height="800px" viewBox="-6.4 -6.4 76.80 76.80" data-name="Material Expand" id="Material_Expand" xmlns="http://www.w3.org/2000/svg" stroke="#ffffff" stroke-width="0.00064">
<g id="SVGRepo_bgCarrier" stroke-width="0"/>
<g id="SVGRepo_tracerCarrier" stroke-linecap="round" stroke-linejoin="round"/>
<g id="SVGRepo_iconCarrier">
<path d="M12,40a2,2,0,0,0-2,2v6H6a2,2,0,0,0-2,2V60a2,2,0,0,0,2,2H18a2,2,0,0,0,2-2V50a2,2,0,0,0-2-2H14V44H30v4H26a2,2,0,0,0-2,2V60a2,2,0,0,0,2,2H38a2,2,0,0,0,2-2V50a2,2,0,0,0-2-2H34V44H51v4H47a2,2,0,0,0-2,2V60a2,2,0,0,0,2,2H59a2,2,0,0,0,2-2V50a2,2,0,0,0-2-2H55V42a2,2,0,0,0-2-2H34V35H48a6.006,6.006,0,0,0,6-6V4a2,2,0,0,0-2-2H13a2,2,0,0,0-2,2v8H9a2,2,0,0,0-2,2V29a6.006,6.006,0,0,0,6,6H30v5Zm4,18H8V52h8Zm20,0H28V52h8Zm21,0H49V52h8ZM15,6H50V29a2,2,0,0,1-4,0V14a2,2,0,0,0-2-2H15ZM11,29V16H42V29a5.972,5.972,0,0,0,.343,2H13A2,2,0,0,1,11,29Z"/>
<rect height="4" width="4" x="15" y="20"/>
<rect height="4" width="13" x="23" y="20"/>
</g>
</svg>